<svg width="340" height="340" viewBox="0 0 340 340" fill="none" xmlns="http://www.w3.org/2000/svg">
<circle cx="170" cy="170" r="170" fill="#95EDA6"/>
<path d="M154 77C154 74.2386 156.239 72 159 72H181C183.761 72 186 74.2386 186 77V262C186 264.761 183.761 267 181 267H159C156.239 267 154 264.761 154 262V77Z" fill="white"/>
<path d="M78 186C75.2386 186 73 183.761 73 181V159C73 156.239 75.2386 154 78 154H263C265.761 154 268 156.239 268 159V181C268 183.761 265.761 186 263 186H78Z" fill="white"/>
</svg>
